<?xml version="1.0"?>
<svg xmlns="http://www.w3.org/2000/svg" xmlns:xlink="http://www.w3.org/1999/xlink" version="1.1" id="Capa_1" x="0px" y="0px" viewBox="0 0 512 512" style="enable-background:new 0 0 512 512;" xml:space="preserve" width="512px" height="512px" class=""><g><path style="fill:#1496FF" d="M460.447,443.824L302.903,32.26C295.511,12.966,276.67,0,256,0c-20.66,0-39.511,12.966-46.893,32.26  L51.554,443.814c-4.801,12.534-4.429,26.173,1.034,38.427c5.474,12.253,15.377,21.634,27.911,26.425  C86.264,510.875,92.3,512,98.447,512c20.66,0,39.511-12.966,46.903-32.27l45.306-118.373h130.687L366.65,479.73  c7.653,19.967,26.746,32.26,46.964,32.26c5.956,0,12.012-1.065,17.888-3.314c12.534-4.801,22.437-14.181,27.911-26.435  C464.876,469.988,465.247,456.349,460.447,443.824z M229.103,260.921L256,190.677l26.897,70.245H229.103z" data-original="#FD6244" class="" data-old_color="#FD6244"/><path style="fill:#2390EF" d="M302.903,32.26C295.511,12.966,276.67,0,256,0c-0.318,0-0.636,0.012-0.953,0.019v193.148l0.953-2.49  l26.897,70.245h-27.85v100.435h66.296l45.306,118.373c7.653,19.967,26.746,32.26,46.964,32.26c5.956,0,12.012-1.065,17.888-3.314  c12.534-4.801,22.437-14.181,27.911-26.435c5.464-12.253,5.835-25.892,1.034-38.417L302.903,32.26z" data-original="#FD3018" class="active-path" data-old_color="#FD3018"/></g> </svg>
